HIERARCHY
ROOT joint_Root
{
	OFFSET 0.0 0.0 0.0
	CHANNELS 6 Xposition Yposition Zposition Zrotation Xrotation Yrotation 
	JOINT Hips
	{
		OFFSET 4.5925 91.4895 -427.239
		CHANNELS 6 Xposition Yposition Zposition Zrotation Xrotation Yrotation 
		JOINT Spine
		{
			OFFSET 15.7357 0.0 0.0
			CHANNELS 6 Xposition Yposition Zposition Zrotation Xrotation Yrotation 
			JOINT Chest
			{
				OFFSET 8.98455 -0.406207 0.0
				CHANNELS 6 Xposition Yposition Zposition Zrotation Xrotation Yrotation 
				JOINT Neck
				{
					OFFSET 16.3773 0.0 0.0
					CHANNELS 6 Xposition Yposition Zposition Zrotation Xrotation Yrotation 
					JOINT Head
					{
						OFFSET 6.45672 0.0 0.0
						CHANNELS 6 Xposition Yposition Zposition Zrotation Xrotation Yrotation 
						End Site
						{
							OFFSET 0.0 0.0 0.0
						}
					}
				}
				JOINT Shoulder_L
				{
					OFFSET 12.9942 -0.242716 4.98039
					CHANNELS 6 Xposition Yposition Zposition Zrotation Xrotation Yrotation 
					JOINT UpperArm_L
					{
						OFFSET 5.34809 0.0 0.0
						CHANNELS 6 Xposition Yposition Zposition Zrotation Xrotation Yrotation 
						JOINT LowerArm_L
						{
							OFFSET 24.3286 1.87007e-05 0.0
							CHANNELS 6 Xposition Yposition Zposition Zrotation Xrotation Yrotation 
							JOINT Hand_L
							{
								OFFSET 22.2916 0.0 0.0
								CHANNELS 6 Xposition Yposition Zposition Zrotation Xrotation Yrotation 
								End Site
								{
									OFFSET 0.0 0.0 0.0
								}
							}
						}
					}
				}
				JOINT Shoulder_R
				{
					OFFSET 12.9945 -0.242716 -4.98039
					CHANNELS 6 Xposition Yposition Zposition Zrotation Xrotation Yrotation 
					JOINT UpperArm_R
					{
						OFFSET -5.34813 0.0 0.0
						CHANNELS 6 Xposition Yposition Zposition Zrotation Xrotation Yrotation 
						JOINT LowerArm_R
						{
							OFFSET -24.3289 0.000322201 0.0
							CHANNELS 6 Xposition Yposition Zposition Zrotation Xrotation Yrotation 
							JOINT Hand_R
							{
								OFFSET -22.2915 -0.000108084 0.0
								CHANNELS 6 Xposition Yposition Zposition Zrotation Xrotation Yrotation 
								End Site
								{
									OFFSET 0.0 0.0 0.0
								}
							}
						}
					}
				}
			}
		}
		JOINT UpperLeg_L
		{
			OFFSET -2.19248 -6.46944 0.0
			CHANNELS 6 Xposition Yposition Zposition Zrotation Xrotation Yrotation 
			JOINT LowerLeg_L
			{
				OFFSET 39.0811 0.0 -1.23785e-05
				CHANNELS 6 Xposition Yposition Zposition Zrotation Xrotation Yrotation 
				JOINT Foot_L
				{
					OFFSET 40.9854 0.0 -1.26872e-05
					CHANNELS 6 Xposition Yposition Zposition Zrotation Xrotation Yrotation 
					JOINT Toes_L
					{
						OFFSET 11.7543 0.0 0.0
						CHANNELS 6 Xposition Yposition Zposition Zrotation Xrotation Yrotation 
						End Site
						{
							OFFSET 0.0 0.0 0.0
						}
					}
				}
			}
		}
		JOINT UpperLeg_R
		{
			OFFSET -2.19251 6.46944 0.0
			CHANNELS 6 Xposition Yposition Zposition Zrotation Xrotation Yrotation 
			JOINT LowerLeg_R
			{
				OFFSET -39.0811 -0.00228153 -0.0401928
				CHANNELS 6 Xposition Yposition Zposition Zrotation Xrotation Yrotation 
				JOINT Foot_R
				{
					OFFSET -40.9854 0.0 0.0
					CHANNELS 6 Xposition Yposition Zposition Zrotation Xrotation Yrotation 
					JOINT Toes_R
					{
						OFFSET -11.7543 0.0 0.0
						CHANNELS 6 Xposition Yposition Zposition Zrotation Xrotation Yrotation 
						End Site
						{
							OFFSET 0.0 0.0 0.0
						}
					}
				}
			}
		}
	}
}
MOTION
Frames:	5
Frame Time:	0.0333333
0.000000 0.000000 0.000000 0.000000 0.000000 -0.000000 -3.029810 91.063800 -2.021840 86.548500 -5.075690 4.964050 15.735700 0.000005 -0.000001 72.090800 85.564300 -74.285000 8.984550 -0.406207 -0.000000 0.630837 -2.590570 -4.371130 16.377300 -0.000001 -0.000001 5.547220 -3.938290 8.002660 6.456720 -0.000001 -0.000000 -0.267318 1.184730 -0.920398 12.994200 -0.242716 4.980390 -90.665400 1.767020 -69.363400 5.348090 -0.000007 -0.000001 -67.756400 17.250400 -3.823100 24.328600 0.000019 0.000005 6.158450 14.254600 -23.664300 22.291600 -0.000001 0.000005 18.481400 5.105720 4.981240 12.994500 -0.242716 -4.980390 93.797900 -8.372850 -65.496900 -5.348130 -0.000001 -0.000004 -57.514400 -66.971900 -98.781100 -24.328900 0.000322 -0.000009 -11.220700 -7.219820 -57.665000 -22.291500 -0.000108 -0.000004 49.080200 5.703560 -18.732800 -2.192480 -6.469440 -0.000000 -170.985000 -11.840200 -5.956170 39.081100 -0.000007 -0.000012 -0.218900 0.362758 31.108500 40.985400 -0.000006 -0.000013 -2.150100 4.114430 -69.343600 11.754300 -0.000000 0.000003 -0.000130 -0.001287 -16.626600 -2.192510 6.469440 -0.000001 -178.812000 17.949200 175.381000 -39.081100 -0.002282 -0.040193 0.026926 -0.043000 28.781800 -40.985400 0.000008 0.000006 9.105440 14.265900 -70.090100 -11.754300 -0.000006 -0.000006 -0.003563 -0.046819 -18.477400
0.000000 0.000000 0.000000 0.000000 0.000000 -0.000000 -3.092070 90.922700 -2.026060 86.018800 -6.081660 5.613340 15.735700 0.000005 -0.000001 76.016500 85.362400 -78.484100 8.984550 -0.406207 -0.000000 1.194900 -2.098890 -4.909430 16.377300 -0.000001 -0.000001 4.550530 -3.062950 6.352860 6.456720 -0.000001 -0.000000 -0.572829 1.034120 -0.557178 12.994200 -0.242716 4.980390 -90.970900 2.527490 -68.979100 5.348090 -0.000007 -0.000001 -65.828500 19.838800 -4.969040 24.328600 0.000019 0.000005 4.447850 10.360300 -23.390100 22.291600 -0.000001 0.000005 16.746000 5.166350 3.543090 12.994500 -0.242716 -4.980390 92.665700 -6.732570 -68.345200 -5.348130 -0.000001 -0.000004 -37.761600 -64.279900 -72.843200 -24.328900 0.000322 -0.000009 -11.783600 -11.928800 -45.299300 -22.291500 -0.000108 -0.000004 29.829400 5.507760 -5.977900 -2.192480 -6.469440 -0.000000 -170.329000 -11.357900 -5.510580 39.081100 -0.000007 -0.000012 -0.241667 0.386095 32.044000 40.985400 -0.000006 -0.000013 -2.544700 2.917310 -69.945400 11.754300 -0.000000 0.000003 -0.000152 -0.001467 -16.633300 -2.192510 6.469440 -0.000001 -178.599000 18.276200 175.988000 -39.081100 -0.002282 -0.040193 0.025374 -0.039602 29.130700 -40.985400 0.000008 0.000006 9.455210 15.387800 -70.520800 -11.754300 -0.000006 -0.000006 -0.003618 -0.047409 -18.501400
0.000000 0.000000 0.000000 0.000000 0.000000 -0.000000 -3.184290 90.788900 -2.060740 85.699200 -6.801650 6.047340 15.735700 0.000005 -0.000001 78.773700 85.246800 -81.738100 8.984550 -0.406207 -0.000000 1.522410 -1.688430 -5.901270 16.377300 -0.000001 -0.000001 3.739820 -2.124220 4.546840 6.456720 -0.000001 -0.000000 -0.963651 0.979680 0.171294 12.994200 -0.242716 4.980390 -91.295800 3.310710 -68.610800 5.348090 -0.000007 -0.000001 -63.473100 20.505100 -5.929280 24.328600 0.000019 0.000005 6.037590 13.348300 -24.611200 22.291600 -0.000001 0.000005 13.123700 5.173490 3.376940 12.994500 -0.242716 -4.980390 91.853900 -5.564530 -71.545000 -5.348130 -0.000001 -0.000004 -23.323000 -55.486000 -50.357600 -24.328900 0.000322 -0.000009 -13.968500 -21.784900 -33.860200 -22.291500 -0.000108 -0.000004 20.154900 5.138630 4.334870 -2.192480 -6.469440 -0.000000 -169.769000 -11.688000 -5.266350 39.081100 -0.000007 -0.000012 -0.249653 0.387011 32.825700 40.985400 -0.000006 -0.000013 -2.682030 2.729500 -70.379400 11.754300 -0.000000 0.000003 -0.000173 -0.001642 -16.639700 -2.192510 6.469440 -0.000001 -178.269000 17.631700 176.280000 -39.081100 -0.002282 -0.040193 0.026295 -0.040634 29.502800 -40.985400 0.000008 0.000006 9.696750 15.307500 -70.947400 -11.754300 -0.000006 -0.000006 -0.003367 -0.044689 -18.390700
0.000000 0.000000 0.000000 0.000000 0.000000 -0.000000 -3.321910 90.717400 -2.170130 85.569200 -6.883970 5.982950 15.735700 0.000005 -0.000001 79.102000 85.330400 -82.623500 8.984550 -0.406207 -0.000000 1.366890 -1.568440 -7.018410 16.377300 -0.000001 -0.000001 3.107930 -1.431160 2.814410 6.456720 -0.000001 -0.000000 -1.196390 0.854800 0.828811 12.994200 -0.242716 4.980390 -91.459300 3.667740 -68.286600 5.348090 -0.000007 -0.000001 -61.922000 20.410200 -6.508880 24.328600 0.000019 0.000005 7.815500 16.701300 -25.530100 22.291600 -0.000001 0.000005 12.401000 5.165280 3.574590 12.994500 -0.242716 -4.980390 91.147400 -4.087020 -74.313600 -5.348130 -0.000001 -0.000004 -26.508400 -48.274200 -41.273300 -24.328900 0.000322 -0.000009 -13.399700 -27.497600 -27.292800 -22.291500 -0.000108 -0.000004 18.639800 4.728310 12.590100 -2.192480 -6.469440 -0.000000 -169.459000 -12.092800 -5.572230 39.081100 -0.000007 -0.000012 -0.253300 0.386434 33.244500 40.985400 -0.000006 -0.000013 -2.669870 3.133530 -70.475500 11.754300 -0.000000 0.000003 -0.000184 -0.001729 -16.642900 -2.192510 6.469440 -0.000001 -177.890000 17.201300 175.988000 -39.081100 -0.002282 -0.040193 0.028957 -0.044782 29.807200 -40.985400 0.000008 0.000006 9.907200 14.844500 -71.112100 -11.754300 -0.000006 -0.000006 -0.003628 -0.047516 -18.505700
0.000000 0.000000 0.000000 0.000000 0.000000 -0.000000 -3.490580 90.670300 -2.244720 85.726900 -6.130320 6.060060 15.735700 0.000005 -0.000001 78.446500 85.337900 -82.314100 8.984550 -0.406207 -0.000000 1.325940 -1.649570 -7.709560 16.377300 -0.000001 -0.000001 2.396910 -0.677057 1.091130 6.456720 -0.000001 -0.000000 -1.548850 0.609666 0.615282 12.994200 -0.242716 4.980390 -91.542100 3.833910 -68.069000 5.348090 -0.000007 -0.000001 -61.798700 19.771900 -6.819500 24.328600 0.000019 0.000005 7.628830 16.813800 -24.845700 22.291600 -0.000001 0.000005 13.942200 5.160360 3.692590 12.994500 -0.242716 -4.980390 90.359600 -1.367210 -75.259000 -5.348130 -0.000001 -0.000004 -31.916600 -45.391100 -36.637100 -24.328900 0.000322 -0.000009 -13.564500 -30.433200 -25.467700 -22.291500 -0.000108 -0.000004 22.731800 4.429960 17.724900 -2.192480 -6.469440 -0.000000 -169.601000 -11.392800 -5.835400 39.081100 -0.000007 -0.000012 -0.251078 0.380773 33.401000 40.985400 -0.000006 -0.000013 -2.761280 3.192370 -70.419000 11.754300 -0.000000 0.000003 -0.000164 -0.001570 -16.637100 -2.192510 6.469440 -0.000001 -177.943000 17.649800 175.909000 -39.081100 -0.002282 -0.040193 0.029659 -0.045550 30.055400 -40.985400 0.000008 0.000006 10.019100 14.469900 -71.347400 -11.754300 -0.000006 -0.000006 -0.003566 -0.046850 -18.478700
